<svg width="24" height="24" viewBox="0 0 24 24" fill="none" xmlns="http://www.w3.org/2000/svg">
<path fill-rule="evenodd" clip-rule="evenodd" d="M12.437 10.2929L12.497 9.43393C12.5141 9.09348 12.4279 8.75581 12.2496 8.46527C12.0713 8.17472 11.8093 7.94489 11.498 7.80593C10.6892 7.55236 9.84851 7.41433 9.00103 7.39593C8.39035 7.3205 7.7727 7.3205 7.16202 7.39593C6.68702 7.46093 6.24202 7.66593 5.88402 7.98593C5.65087 8.2129 5.48478 8.49973 5.40402 8.81493C5.29788 9.33377 5.26089 9.86438 5.29402 10.3929C4.29502 10.3929 3.23602 10.4829 2.20702 10.4829C2.13011 10.4829 2.05635 10.5135 2.00196 10.5679C1.94758 10.6223 1.91702 10.696 1.91702 10.7729C1.91702 10.8498 1.94758 10.9236 2.00196 10.978C2.05635 11.0324 2.13011 11.0629 2.20702 11.0629C4.33502 11.2129 6.47303 11.3129 8.62103 11.3429H14.985C16.044 11.3429 16.823 11.4529 17.742 11.5519C17.8897 12.19 17.9369 12.8473 17.882 13.4999C17.9116 14.229 17.6652 14.9425 17.192 15.4979C16.8412 15.6318 16.4695 15.7029 16.094 15.7079L14.415 15.8779L11.199 16.1379V15.7879C11.146 15.4658 11.0049 15.1647 10.7913 14.9178C10.5778 14.6709 10.3001 14.4879 9.98903 14.3889C9.67877 14.2917 9.34626 14.2913 9.03577 14.3878C8.72528 14.4842 8.45154 14.673 8.25103 14.9289C7.98752 15.2648 7.81837 15.6649 7.76102 16.0879V16.1979C7.02302 16.1379 5.45402 16.0579 4.04502 15.8879C3.54836 15.8399 3.05569 15.7633 2.56702 15.6579C2.31116 15.6239 2.06561 15.5352 1.84702 15.3979C1.41102 15.0579 1.12702 14.5579 1.05802 14.0099C0.973043 13.0849 0.98981 12.1533 1.10802 11.2319C1.11881 11.1918 1.12086 11.1499 1.11403 11.109C1.10721 11.068 1.09167 11.029 1.06847 10.9946C1.04527 10.9601 1.01495 10.9311 0.979562 10.9094C0.944169 10.8877 0.90453 10.8738 0.863324 10.8688C0.822118 10.8637 0.780306 10.8676 0.740715 10.8801C0.701123 10.8925 0.664675 10.9134 0.633835 10.9412C0.602995 10.969 0.578482 11.0031 0.561952 11.0412C0.545423 11.0792 0.537263 11.1204 0.538024 11.1619C0.294607 12.1262 0.164395 13.1155 0.150024 14.1099C0.159024 14.8849 0.467024 15.6259 1.01002 16.1779C1.66002 16.5879 2.40902 16.8149 3.17702 16.8379C4.66236 16.9199 6.14769 16.9199 7.63302 16.8379C7.64636 17.1426 7.67636 17.4456 7.72302 17.7469C7.73303 17.823 7.77177 17.8923 7.83128 17.9406C7.89079 17.989 7.96656 18.0127 8.04302 18.0069C8.1164 17.9969 8.18317 17.9593 8.22965 17.9016C8.27613 17.844 8.29881 17.7708 8.29303 17.6969C8.26947 17.2796 8.28958 16.861 8.35302 16.4479C8.40102 16.0979 8.56602 15.7739 8.82202 15.5289C8.91443 15.4333 9.03357 15.3678 9.16383 15.341C9.29409 15.3143 9.4294 15.3275 9.55202 15.3789C9.67367 15.4223 9.78094 15.4986 9.86195 15.5992C9.94296 15.6998 9.99455 15.8208 10.011 15.9489C10.011 16.1189 10.061 16.2989 10.081 16.4889C10.111 16.7649 10.111 17.0409 10.081 17.3169C10.0462 17.5944 9.95061 17.8607 9.80102 18.0969C9.66902 18.2639 9.50102 18.3999 9.31102 18.4969C9.24268 18.5466 9.16417 18.5804 9.08115 18.5959C8.99814 18.6115 8.9127 18.6084 8.83103 18.5869C8.78391 18.5589 8.74306 18.5214 8.71103 18.4769C8.65676 18.3895 8.60703 18.2994 8.56203 18.2069C8.53262 18.1249 8.47195 18.0578 8.39326 18.0203C8.31457 17.9829 8.22425 17.9781 8.14202 18.0069C8.10289 18.0242 8.06761 18.0491 8.03827 18.0802C8.00893 18.1114 7.98613 18.1481 7.97121 18.1881C7.95629 18.2282 7.94957 18.2709 7.95142 18.3136C7.95328 18.3564 7.96369 18.3983 7.98202 18.4369C8.03136 18.5909 8.09802 18.7373 8.18202 18.8759C8.26202 18.9959 8.36203 19.0959 8.48203 19.1759C8.63232 19.2623 8.79953 19.315 8.97216 19.3305C9.14479 19.3461 9.31873 19.324 9.48203 19.2659C9.8901 19.1548 10.2596 18.9334 10.55 18.6259C10.832 18.2969 11.025 17.9019 11.11 17.4769C11.1654 17.2343 11.1954 16.9879 11.2 16.7379C12.249 16.7379 14.037 16.8579 15.475 16.7379C16.304 16.7546 17.1254 16.5765 17.873 16.2179C18.418 15.6079 18.72 14.8179 18.723 14.0009C18.992 10.2839 18.153 10.5739 12.438 10.2939M7.92302 10.2939L5.86502 10.3739C5.89569 10.0019 5.95902 9.6356 6.05502 9.27493C6.11102 9.04493 6.24102 8.83693 6.42502 8.68493C6.67602 8.52993 6.96702 8.44693 7.26302 8.44593C7.80068 8.4216 8.33943 8.44839 8.87202 8.52593H9.87103C10.295 8.50093 10.72 8.54493 11.13 8.65593C11.312 8.71252 11.4724 8.82305 11.5901 8.97289C11.7078 9.12272 11.7771 9.30478 11.789 9.49493V10.2549C10.5007 10.2165 9.21154 10.2132 7.92302 10.2449V10.2939Z" fill="#FFFFC5"/>
<path fill-rule="evenodd" clip-rule="evenodd" d="M17.053 17.0069C17.011 17.0056 16.9691 17.0125 16.9297 17.0274C16.8904 17.0423 16.8544 17.0647 16.8237 17.0935C16.7931 17.1223 16.7684 17.1569 16.7511 17.1952C16.7338 17.2335 16.7243 17.2749 16.723 17.3169L16.523 20.9729C16.538 21.3179 16.508 21.6639 16.433 22.0019C16.4022 22.1705 16.318 22.3247 16.193 22.4419C15.898 22.6479 15.553 22.7749 15.195 22.8119C14.5799 22.9064 13.9583 22.9529 13.336 22.9509H10.92C9.01098 22.8809 7.09298 22.7509 5.17498 22.7409C4.42564 22.7869 3.67631 22.7869 2.92698 22.7409C2.50815 22.7314 2.1042 22.5838 1.77798 22.3209C1.66925 22.2066 1.60229 22.059 1.58798 21.9019C1.55463 21.5698 1.55463 21.2351 1.58798 20.9029V17.1469C1.60371 17.0712 1.58936 16.9923 1.54798 16.9269C1.50661 16.8616 1.44143 16.8149 1.36624 16.7967C1.29105 16.7785 1.21173 16.7903 1.14506 16.8295C1.07839 16.8687 1.02959 16.9324 1.00898 17.0069L0.838978 20.8329C0.788978 21.2216 0.775645 21.6113 0.798978 22.0019C0.825978 22.3349 0.958978 22.6499 1.17898 22.9019C1.51398 23.2399 1.94098 23.4729 2.40798 23.5699C3.32798 23.7319 4.26198 23.7989 5.19498 23.7699C7.09298 23.7699 9.00098 23.9599 10.91 23.9999H13.407C14.078 23.9779 14.747 23.8999 15.405 23.7699C15.9067 23.6773 16.3773 23.4608 16.774 23.1399C17.027 22.8969 17.194 22.5779 17.254 22.2319C17.3206 21.8186 17.344 21.4019 17.324 20.9819V17.3559C17.3326 17.2741 17.3094 17.192 17.2591 17.1268C17.2088 17.0616 17.1354 17.0183 17.054 17.0059" fill="#FFFFC5"/>
<path fill-rule="evenodd" clip-rule="evenodd" d="M23.557 5.16802C23.277 4.52802 22.837 3.87902 22.557 3.36002C22.377 3.01002 22.207 2.53002 21.978 2.14102C21.8534 1.92081 21.6948 1.72168 21.508 1.55102C21.1825 1.31115 20.8073 1.14746 20.41 1.07202C19.65 0.902021 18.681 0.862021 18.212 0.762021C17.442 0.602021 16.693 0.362021 15.924 0.202021C15.5685 0.117764 15.2077 0.0579575 14.844 0.0230213C14.532 -0.00637167 14.218 -0.00637167 13.906 0.0230213C13.703 0.0430213 13.509 0.120021 13.346 0.243021C13.1593 0.39727 13.035 0.614017 12.996 0.853021C12.876 1.35202 12.866 2.17102 12.796 2.44102C12.6487 2.95169 12.4623 3.44769 12.237 3.92902C11.877 4.66902 11.458 5.37802 11.038 6.06702C11.0175 6.09782 11.0032 6.13239 10.9961 6.16872C10.989 6.20506 10.9892 6.24245 10.9966 6.27872C11.0041 6.31499 11.0186 6.34942 11.0395 6.38003C11.0603 6.41063 11.087 6.4368 11.118 6.45702C11.1818 6.49905 11.2596 6.51422 11.3345 6.49924C11.4093 6.48426 11.4753 6.44034 11.518 6.37702C11.978 5.68702 12.448 4.97802 12.847 4.22902C13.117 3.72502 13.3437 3.20235 13.527 2.66102L13.886 0.942021H14.755C15.0723 0.976688 15.3853 1.03669 15.694 1.12202C16.464 1.31202 17.213 1.57202 17.972 1.76202C18.382 1.85202 19.171 1.90202 19.87 2.03202C20.066 2.06402 20.2593 2.11035 20.45 2.17102C20.36 2.38102 20.27 2.59102 20.17 2.79102C19.99 3.17102 19.8 3.53002 19.59 3.88902C19.38 4.24802 19.27 4.40902 19.14 4.66902C19.013 4.91403 18.9381 5.18266 18.92 5.45802C18.9104 5.73997 18.9989 6.01652 19.1703 6.2406C19.3416 6.46468 19.5854 6.62244 19.86 6.68702L20.45 6.81702H21.528L22.808 6.63702C22.808 6.71702 22.808 6.80702 22.738 6.89702C22.588 7.34602 22.368 7.82602 22.268 8.14502C21.8867 9.46062 21.4262 10.752 20.889 12.012C20.5251 12.8281 20.1009 13.6159 19.62 14.369C19.5962 14.4044 19.5796 14.4442 19.5712 14.486C19.5628 14.5279 19.5628 14.5709 19.5712 14.6128C19.5796 14.6546 19.5961 14.6944 19.62 14.7298C19.6438 14.7652 19.6744 14.7955 19.71 14.819C19.7631 14.8551 19.8258 14.8744 19.89 14.8744C19.9542 14.8744 20.0169 14.8551 20.07 14.819C20.1061 14.7958 20.1368 14.7651 20.16 14.729C20.6933 13.965 21.1593 13.1624 21.558 12.321C22.1619 11.0757 22.6892 9.79463 23.137 8.48502C23.267 8.11502 23.567 7.54502 23.727 7.03602C23.8236 6.76049 23.8644 6.46848 23.847 6.17702C23.8032 5.8277 23.7053 5.48731 23.557 5.16802ZM21.498 6.01802L20.609 5.91802L20.259 5.78802C20.099 5.71802 20.009 5.66802 20.009 5.56802C20.029 5.37502 20.087 5.18802 20.179 5.01802C20.289 4.78802 20.399 4.53802 20.489 4.30902C20.579 4.07902 20.719 3.65902 20.819 3.30902C20.919 2.96002 20.949 2.85002 21.009 2.62102C21.009 2.67102 21.079 2.72102 21.109 2.78102C21.289 3.14102 21.449 3.54002 21.609 3.77902C21.769 4.01902 22.218 4.77902 22.498 5.25802C22.602 5.45135 22.692 5.65135 22.768 5.85802L21.498 6.01802ZM6.41301 7.01602C6.40073 7.0521 6.39594 7.0903 6.39894 7.12829C6.40194 7.16628 6.41266 7.20326 6.43044 7.23696C6.44823 7.27066 6.47271 7.30038 6.50238 7.32429C6.53206 7.3482 6.5663 7.36581 6.60301 7.37602C6.64219 7.39781 6.68617 7.40951 6.731 7.41005C6.77582 7.41059 6.82008 7.39996 6.85977 7.37913C6.89946 7.35829 6.93334 7.3279 6.95835 7.29069C6.98335 7.25349 6.99871 7.21064 7.00301 7.16602C7.27024 6.492 7.46761 5.79233 7.59201 5.07802C7.68801 4.36869 7.74801 3.65602 7.77201 2.94002C7.77201 2.79002 7.61201 2.30002 7.59201 2.00102C8.69964 2.05512 9.80356 2.16862 10.899 2.34102C10.9838 2.35892 11.0723 2.34273 11.1453 2.29595C11.2182 2.24918 11.2699 2.17556 11.289 2.09102C11.2995 2.02453 11.2894 1.95642 11.2601 1.89583C11.2308 1.83524 11.1837 1.78506 11.125 1.75202C11.0865 1.72948 11.0435 1.71582 10.999 1.71202C9.869 1.39501 8.72136 1.14458 7.56201 0.962021C7.40327 0.937432 7.24087 0.953934 7.09031 1.00995C6.93976 1.06597 6.80607 1.15964 6.70201 1.28202C6.6267 1.43814 6.5861 1.60872 6.58301 1.78202C6.58301 2.15102 6.64301 2.70102 6.58301 2.92002C6.63901 3.74269 6.63901 4.56535 6.58301 5.38802C6.56701 5.93469 6.51035 6.47735 6.41301 7.01602Z" fill="#FFFFC5"/>
<path fill-rule="evenodd" clip-rule="evenodd" d="M15.814 4.42907C16.078 4.54373 16.348 4.64374 16.624 4.72907C17.043 4.86907 17.463 4.95907 17.862 5.10907C17.9331 5.15237 18.018 5.16716 18.0996 5.15046C18.1813 5.13377 18.2535 5.08683 18.302 5.01907C18.3229 4.98178 18.3362 4.94067 18.341 4.89817C18.3458 4.85567 18.342 4.81263 18.3299 4.77161C18.3178 4.73059 18.2976 4.69242 18.2704 4.65935C18.2433 4.62628 18.2098 4.59898 18.172 4.57907C17.8217 4.30403 17.4506 4.05662 17.062 3.83907C16.8984 3.7438 16.7283 3.66025 16.553 3.58907C16.3749 3.52339 16.1948 3.46336 16.013 3.40907C15.574 3.29907 15.145 3.26007 14.715 3.19007C14.6472 3.17796 14.5774 3.19035 14.5179 3.22502C14.4584 3.25968 14.4132 3.31437 14.3904 3.37929C14.3676 3.44422 14.3685 3.51516 14.3932 3.57942C14.4179 3.64368 14.4646 3.69708 14.525 3.73007C14.995 3.93007 15.354 4.21007 15.814 4.42907ZM13.476 5.81807C13.4696 5.89159 13.4906 5.96487 13.5349 6.0239C13.5791 6.08294 13.6436 6.12358 13.716 6.13807C14.2026 6.3014 14.679 6.49107 15.145 6.70707C15.4716 6.83773 15.8046 6.95107 16.144 7.04707C16.704 7.22707 17.273 7.34607 17.862 7.47607C17.9012 7.49188 17.9433 7.49948 17.9857 7.49839C18.028 7.4973 18.0697 7.48756 18.1081 7.46976C18.1465 7.45196 18.1808 7.42647 18.209 7.39488C18.2372 7.36329 18.2586 7.32626 18.272 7.28607C18.2879 7.24609 18.2956 7.20331 18.2946 7.16029C18.2937 7.11726 18.284 7.07488 18.2663 7.03567C18.2485 6.99646 18.2231 6.96123 18.1914 6.93209C18.1597 6.90295 18.1225 6.88049 18.082 6.86607C17.592 6.62607 17.152 6.35707 16.683 6.12707C16.3619 5.97093 16.0276 5.84376 15.684 5.74707C15.0812 5.61055 14.4637 5.55008 13.846 5.56707C13.805 5.5531 13.7614 5.54881 13.7185 5.55454C13.6756 5.56026 13.6347 5.57585 13.5988 5.60007C13.563 5.62429 13.5332 5.65649 13.5119 5.69414C13.4906 5.73179 13.4783 5.77487 13.476 5.81807Z" fill="#FFFFC5"/>
</svg>
