<svg width="14" height="14" viewBox="0 0 14 14" fill="none" xmlns="http://www.w3.org/2000/svg">
<path d="M6.702 0.368113C6.79621 0.327242 6.89781 0.306152 7.0005 0.306152C7.1032 0.306152 7.2048 0.327242 7.299 0.368113C9.397 1.27811 11.404 2.35811 13.303 3.59111C13.4232 3.66907 13.5185 3.77982 13.5778 3.91026C13.637 4.0407 13.6576 4.18538 13.6372 4.32717C13.6168 4.46897 13.5562 4.60195 13.4626 4.7104C13.369 4.81884 13.2463 4.89821 13.109 4.93911C11.1204 5.53335 9.18979 6.30685 7.341 7.25011C7.23542 7.30401 7.11855 7.33212 7 7.33212C6.88145 7.33212 6.76459 7.30401 6.659 7.25011C6.03367 6.93011 5.39734 6.62978 4.75 6.34911V5.80711C5.58835 5.33048 6.445 4.88681 7.318 4.47711C7.48948 4.38768 7.61978 4.23546 7.6817 4.05224C7.74362 3.86902 7.73236 3.66896 7.65029 3.49384C7.56821 3.31872 7.42166 3.18207 7.24123 3.11243C7.06081 3.04279 6.86045 3.04555 6.682 3.12011C5.6382 3.60844 4.61714 4.14399 3.622 4.72511C3.50877 4.79119 3.41484 4.88579 3.34956 4.99949C3.28429 5.11319 3.24997 5.24201 3.25 5.37311V5.73811C2.47667 5.44478 1.69034 5.17811 0.891005 4.93811C0.753964 4.89707 0.631521 4.81768 0.538119 4.70932C0.444718 4.60097 0.384254 4.46816 0.363861 4.32656C0.343468 4.18497 0.363996 4.04049 0.423024 3.91018C0.482052 3.77987 0.577117 3.66916 0.697005 3.59111C2.60576 2.35199 4.61436 1.27393 6.702 0.368113ZM3.25 7.34811C2.72 7.13611 2.183 6.93745 1.639 6.75211C1.46349 7.73668 1.32407 8.72735 1.221 9.72211C1.20412 9.88552 1.24136 10.0499 1.32699 10.1901C1.41262 10.3303 1.54192 10.4385 1.695 10.4981C1.87034 10.5661 2.045 10.6361 2.219 10.7081C2.04448 10.9505 1.85051 11.1782 1.639 11.3891C1.56532 11.4578 1.50622 11.5406 1.46522 11.6326C1.42423 11.7246 1.40219 11.8239 1.40041 11.9246C1.39864 12.0253 1.41716 12.1253 1.45488 12.2187C1.4926 12.3121 1.54875 12.3969 1.61997 12.4682C1.69119 12.5394 1.77602 12.5955 1.86941 12.6332C1.9628 12.671 2.06282 12.6895 2.16353 12.6877C2.26423 12.6859 2.36354 12.6639 2.45554 12.6229C2.54754 12.5819 2.63034 12.5228 2.699 12.4491C3.049 12.0991 3.354 11.7244 3.614 11.3251C3.15449 11.1073 2.68933 10.9015 2.219 10.7081C2.88984 9.77298 3.25044 8.65098 3.25 7.50011V7.34811Z" fill="#FFFFC5"/>
<path d="M6.60301 12.9602C5.64235 12.3589 4.64601 11.8139 3.61401 11.3252C4.26613 10.3253 4.65168 9.17515 4.73401 7.9842C5.15335 8.1762 5.56801 8.37686 5.97801 8.5862C6.29465 8.74774 6.64505 8.83195 7.00051 8.83195C7.35597 8.83195 7.70638 8.74774 8.02301 8.5862C9.42349 7.87233 10.8732 7.25943 12.361 6.7522C12.5363 7.73086 12.676 8.72086 12.78 9.7222C12.7969 9.8856 12.7597 10.05 12.674 10.1902C12.5884 10.3304 12.4591 10.4386 12.306 10.4982C10.5965 11.1636 8.95299 11.9875 7.39701 12.9592C7.27793 13.0335 7.14038 13.0729 7.00001 13.0729C6.85965 13.0729 6.7221 13.0335 6.60301 12.9592" fill="#FFFFC5"/>
</svg>
